# xmcd
#
# Track frame offsets:
#	150
#	10900
#	22271
#	32149
#	51816
#	69458
#	80990
#	95446
#	105508
#	120072
#	130969
#	141761
#	151194
#	164586
#	179174
#	192207
#	205289
#	217540
#	227337
#	241514
#
# Disc length: 3388 seconds
#
# Revision: 1
# Processed by: cddbd v1.5.1PL0 Copyright (c) Steve Scherf et al.
# Submitted via: audiograbber 1.83.01
#
DISCID=070d3a14
DTITLE=Various Artist - Superhits of Country [CD8]
DYEAR=1900
DGENRE=Country
TTITLE0=Lynn Anderson - Top Of The World
TTITLE1=Roy Clark - Tips Of My Fingers
TTITLE2=Merle Haggard - Mama Tried
TTITLE3=Crystal Gayle - Don´t It Make My Brown Eyes Blue
TTITLE4=Charlie Rich - Most Beautiful Girl In The World
TTITLE5=Nancy Peppers - Watch Me Fall Apart
TTITLE6=Don Gibson - I Cant´ Stop Lovin´ You
TTITLE7=Tammy Wynette - D-i-v-o-r-c-e
TTITLE8=Charley Pride  - Kiss An Angel Good Mornin´ (live performance)
TTITLE9=The Everly Brothers - Devoted To You
TTITLE10=Hank Thompson - Humpty Dumpty Heart
TTITLE11=Loretta Lynn - Coal Miner´s Daughter (live performance)
TTITLE12=Rick Nelson - Never Be Anyone Else But You
TTITLE13=The Bellamy Brothers - I´ve I Said You Had Beautiful
TTITLE14=Patsy Cline - I´ve Loved And Lost Again
TTITLE15=The Gatlin Brothers - Love Is Just A Game
TTITLE16=Becky Hobbs - Angels Among Us
TTITLE17=Johnny Cash - Ballad Of A Teenage Queen
TTITLE18=Sandy Posey - Single Girl
TTITLE19=Hank Locklin - Please Help Me I´m Falling
EXTD=
EXTT0=
EXTT1=
EXTT2=
EXTT3=
EXTT4=
EXTT5=
EXTT6=
EXTT7=
EXTT8=
EXTT9=
EXTT10=
EXTT11=
EXTT12=
EXTT13=
EXTT14=
EXTT15=
EXTT16=
EXTT17=
EXTT18=
EXTT19=
PLAYORDER=
